<?xml version="1.0" encoding="UTF-8" standalone="no"?>
<!-- Created with Inkscape (http://www.inkscape.org/) -->

<svg
   width="512"
   height="512"
   viewBox="0 0 512 512"
   version="1.1"
   id="svg1"
   inkscape:version="1.4.3 (0d15f75, 2025-12-25)"
   sodipodi:docname="TERRITORIAL PISSINGS.svg"
   xmlns:inkscape="http://www.inkscape.org/namespaces/inkscape"
   xmlns:sodipodi="http://sodipodi.sourceforge.net/DTD/sodipodi-0.dtd"
   xmlns="http://www.w3.org/2000/svg"
   xmlns:svg="http://www.w3.org/2000/svg">
  <sodipodi:namedview
     id="namedview1"
     pagecolor="#858585"
     bordercolor="#000000"
     borderopacity="0.25"
     inkscape:showpageshadow="2"
     inkscape:pageopacity="0.0"
     inkscape:pagecheckerboard="0"
     inkscape:deskcolor="#d1d1d1"
     inkscape:document-units="px"
     inkscape:zoom="1.2363281"
     inkscape:cx="277.83886"
     inkscape:cy="256"
     inkscape:window-width="1440"
     inkscape:window-height="877"
     inkscape:window-x="-8"
     inkscape:window-y="-8"
     inkscape:window-maximized="1"
     inkscape:current-layer="layer1" />
  <defs
     id="defs1" />
  <g
     inkscape:label="Camada 1"
     inkscape:groupmode="layer"
     id="layer1">
    <text
       xml:space="preserve"
       style="font-size:58.7729px;font-family:OPTIOnyx;-inkscape-font-specification:'OPTIOnyx, Normal';writing-mode:lr-tb;direction:ltr;fill:#ffd42a;stroke-width:4.89775"
       x="58.317322"
       y="461.2326"
       id="text14"><tspan
         sodipodi:role="line"
         id="tspan14"
         x="58.317322"
         y="461.2326"
         style="stroke-width:4.89775">TERRITORIAL PISSINGS </tspan></text>
    <path
       style="fill:#ececec"
       id="path18"
       d="m 259.98796,368.54529 c -0.91127,0.0419 -1.82558,0.21093 -2.73382,0.12559 -4.49721,-0.42255 -8.28714,-1.62168 -12.57929,-3.1895 -6.36014,-2.3232 -12.45096,-5.13203 -18.45304,-8.26187 -3.13788,-1.63627 -6.18079,-3.44854 -9.27118,-5.17281 0.36089,0.0881 1.37565,0.49268 1.08266,0.26429 -8.07711,-6.29631 -4.97914,-2.73086 -11.77355,-8.63237 -1.7507,-1.52063 -3.28796,-3.04494 -4.33669,-5.10547 -0.20422,-0.40124 -0.24524,-0.86641 -0.36787,-1.29961 1.19063,-5.73975 0.60269,-2.03045 -13.69309,-8.76091 -0.92266,-0.4344 -2.02746,0.25917 -3.04717,0.2735 -1.90117,0.0267 -3.81181,0.0543 -5.70209,-0.1506 -9.03095,-0.97896 -16.45633,-2.81724 -25.48001,-4.70543 -14.09854,-3.28987 -28.05244,-7.18595 -41.84561,-11.57958 -2.08317,-0.66356 -13.863538,-4.52761 -16.663852,-5.82717 -1.759375,-0.81649 -3.331138,-1.98789 -4.996708,-2.98183 2.647473,1.07646 5.121986,3.69093 7.94242,3.22937 1.558484,-0.25504 -1.658699,-2.70206 -2.271988,-4.15732 -1.569203,-3.72355 -3.267209,-10.88951 -4.175495,-14.35879 -5.239357,-20.01216 -2.843907,-10.03837 -7.462471,-31.71459 -5.741534,-27.2795 -9.367783,-54.95131 -11.285402,-82.74918 -0.284491,-5.44652 -0.513265,-10.8954 -0.505578,-16.35006 0.0034,-2.41081 -0.130437,-4.29071 0.669932,-6.62124 0.431254,-1.25574 1.150868,-2.39311 1.726302,-3.58966 2.387505,-3.77819 5.686291,-6.79105 8.664536,-10.07035 1.508547,-1.66104 2.785231,-3.4368 4.387,-5.00577 1.107024,-0.76463 2.14959,-1.63223 3.321072,-2.2939 8.250701,-4.66005 13.035862,-6.51555 22.580152,-9.87805 9.94735,-3.50449 22.0245,-7.03211 32.25104,-9.70249 4.73261,-1.23579 9.51044,-2.29141 14.26566,-3.43712 9.16401,-1.79454 15.17745,-3.3085 24.48435,-3.83611 15.62408,-0.88575 31.27747,1.23753 46.65514,3.72456 2.07437,0.33387 10.38202,1.92976 13.02182,1.48327 4.51039,-0.76287 10.13717,-4.77563 13.65862,-6.94879 14.60673,-9.014118 4.50819,-3.181179 22.27577,-12.867853 18.27234,-8.639501 37.59509,-14.956262 57.1922,-19.818279 9.21444,-2.286091 20.05718,-4.889774 29.78925,-4.119763 3.49591,0.276599 6.81259,1.667388 10.21888,2.501082 -0.80169,-0.03104 -2.71728,-0.832168 -2.40508,-0.09311 1.20294,2.847715 3.97398,4.77618 5.51529,7.455902 4.52558,7.868168 6.50816,17.155653 7.72951,26.039951 0.31242,2.27262 0.45239,4.56563 0.67858,6.84845 0.7713,5.74753 -0.97112,12.05486 1.72266,17.44019 2.60501,5.20785 6.92561,10.03929 10.42666,14.48527 6.89098,8.68234 13.85852,17.31265 20.46661,26.21514 1.9027,2.56334 6.21604,7.42388 6.24533,11.35232 0.0122,1.63292 -1.1118,3.07087 -1.66769,4.60631 -4.81177,5.7835 -11.3015,9.41708 -17.86762,12.83591 -2.21371,1.15262 -7.87479,3.64883 -10.17963,5.30718 -0.94443,0.67953 -1.65572,1.63506 -2.48358,2.45259 -0.24554,0.94809 -0.69401,1.86584 -0.73664,2.84429 -0.13956,3.20351 1.98454,6.93651 2.89823,9.92005 1.59242,5.19985 1.88378,7.53152 3.03453,13.2494 1.19253,7.89457 2.0497,15.83461 2.65905,23.79422 0.22453,2.93296 0.42053,8.29263 1.02157,11.25608 0.37566,1.85222 1.04293,3.63314 1.5644,5.4497 1.08566,1.91685 1.97973,3.95565 3.25698,5.75053 6.02271,8.46357 15.4716,14.5247 23.32157,21.20423 4.4244,3.63972 6.53623,8.81758 9.31333,13.6335 2.49525,4.74576 7.75002,7.33913 10.86308,11.45601 0.70568,0.93323 1.23729,1.98614 1.85594,2.9792 2.91583,6.64091 3.90108,13.88323 3.43089,21.10049 -0.32649,5.01146 -1.07881,7.78519 -2.09371,12.63547 -1.60311,4.99992 -2.909,10.36441 -5.90256,14.78145 -0.89712,1.32371 -1.48487,1.77363 -2.60367,2.83035 -2.96852,2.27279 -6.67246,2.66183 -10.26893,3.09009 -6.85261,0.61837 -13.70898,1.06959 -20.5875,1.24368 -1.15112,0.073 -2.30248,0.14252 -3.45338,0.21904 -5.76747,0.3835 -11.47354,0.77978 -17.26449,0.65763 -7.45947,-0.15735 -12.34778,-0.61119 -19.91836,-1.1516 -21.36213,-1.6502 -42.74803,-2.85854 -64.09581,-4.6987 -8.25016,-1.02945 -16.53515,-1.19896 -24.83343,-1.27825 -2.4812,0.0377 -3.62049,-0.14592 -5.95245,0.60292 -2.93556,0.94267 -5.50922,3.11421 -8.06846,4.76894 -1.13487,0.64903 -2.30448,1.42455 -3.60703,1.71934 -5.10096,1.15445 -12.60712,-1.53544 -17.44155,-2.90433 -1.86364,-0.62065 -3.74155,-1.19999 -5.59092,-1.86193 -3.98627,-1.4268 -8.06969,-2.98881 -11.83869,-4.93881 -0.75778,-0.39206 -2.95709,-1.70369 -2.21497,-1.28273 3.52189,1.99778 7.03625,4.00881 10.55438,6.01321 -2.11751,-1.195 -3.6366,-3.00128 -5.09382,-4.89239 -3.84084,-6.62245 -11.89244,-9.12477 -18.63239,-12.2829 -4.15098,-1.39266 -8.01883,-3.39623 -11.87829,-5.42644 -6.13815,-3.46463 6.37353,3.74914 9.63024,5.49741 0.56903,0.30547 -1.045,-0.76179 -1.53337,-1.18441 -1.68012,-1.45396 -3.1706,-3.14517 -4.67086,-4.77758 -2.47515,-2.7162 -4.71656,-5.63811 -6.72937,-8.71068 -0.32658,-0.79836 -2.25918,-2.63207 -1.95789,-3.62203 0.0637,-0.20934 0.44175,-0.24126 0.5697,-0.27414 0.66958,-0.0942 1.35548,-0.24327 2.02062,-0.009 0.29158,0.10278 1.0879,0.58795 0.81779,0.43755 -12.06058,-6.71587 -14.94637,-9.21309 -10.39991,-5.46396 2.42299,2.10208 4.30457,4.7135 6.55367,6.98113 3.18883,2.89915 6.75637,5.33302 10.44217,7.54915 7.74572,5.10954 15.3753,9.19304 23.75885,12.75535 1.01322,0.39573 2.03338,0.77413 3.03965,1.18721 1.0628,0.43628 2.12204,0.88242 3.1667,1.36051 1.0914,0.49947 4.2635,2.19805 3.23983,1.57137 -17.00202,-10.40833 -5.73003,-2.96588 -2.18913,-0.41115 6.75147,5.57923 14.30929,9.42079 21.95229,13.77208 2.11728,0.79489 4.17484,1.70538 6.3581,2.30936 1.17484,0.35889 2.41426,0.35926 3.60374,0.64579 3.53682,0.85196 21.09113,11.70127 -9.88134,-5.9201 0.1052,0.0403 0.20546,0.14468 0.31561,0.12099 0.0919,-0.0198 0.1935,-0.13443 0.16958,-0.22534 -0.0424,-0.16101 -3.45353,0.7064 -3.75125,0.76921 -2.50431,0.47888 -4.97001,1.06785 -7.51015,1.33853 -2.66868,0.22749 -5.35013,0.2276 -8.02645,0.22117 -2.35183,-0.14456 -5.07077,0.10914 -7.26511,-0.9569 -0.4191,-0.2036 -0.76563,-0.53122 -1.14845,-0.79683 21.59547,12.37138 8.77172,6.89992 7.57587,0.55203 0.11835,-1.77044 2.03489,-2.03141 3.47159,-2.24454 2.15251,-0.20381 4.31702,-0.13322 6.47559,-0.1268 0.2745,0.0148 0.57354,-0.0701 0.8235,0.0444 0.12864,0.0589 0.26229,0.47785 0.14489,0.39892 -4.19957,-2.82332 -8.23718,-5.88407 -12.45737,-8.67645 -0.009,-0.006 -2.54089,0.26999 -2.60577,0.27572 -6.69894,0.4675 -6.98708,-2.09595 10.77711,9.08428 0.47251,0.29739 1.11265,0.10262 1.66421,0.18911 0.32481,0.0509 3.54528,0.69777 3.85524,0.75969 0.0636,0.0168 3.2469,0.85579 3.40852,0.90814 4.55884,1.47669 16.58321,9.09944 -8.81585,-5.45043 1.61628,-0.9965 -2.13721,-0.49482 -2.40184,-0.48247 -2.25075,0.0532 -4.50284,0.0393 -6.75402,0.0207 -2.25173,0.0717 -3.57386,0.0202 -5.58305,-1.089 18.84108,10.84182 13.23188,9.19968 9.57669,4.02901 -1.99401,-2.82074 -3.83937,-5.7577 -5.70495,-8.66361 -1.81469,-2.66407 -3.42042,-5.57917 -5.76589,-7.83896 -4.11905,-3.96859 -9.7986,-5.90553 -14.76335,-8.74588 -2.10605,-0.62147 -4.26243,-0.96223 -6.4474,-1.12414 -2.96212,0.0494 -5.87725,-0.46828 -8.79621,-0.90793 -0.66569,-0.12117 -1.70524,-0.26333 -2.38803,-0.52655 -0.15028,-0.0579 -0.54243,-0.34732 -0.41023,-0.25531 4.74218,3.30024 8.01026,8.8136 13.52572,8.67711 3.57178,-0.16392 7.14855,-0.14637 10.72311,-0.13609 1.39742,0.10445 2.32245,0.0467 3.61789,0.5962 0.49901,0.21166 1.86609,1.10363 1.39362,0.83794 -20.92054,-11.76459 -12.48229,-8.06486 -9.21525,-4.77189 0.0233,0.0988 0.13629,0.2196 0.0699,0.29633 -0.96989,1.12045 -6.5335,1.54479 -7.89375,1.61194 -2.28595,0.0901 -4.57156,-0.13175 -6.83099,-0.46228 -0.96935,-0.14181 -2.33967,-0.18237 -3.07043,-0.91959 4.13663,2.81554 8.28542,5.61329 12.40989,8.44662 0.10862,0.0746 0.15567,0.2482 0.28488,0.27413 0.62903,0.1262 1.28105,-0.0758 1.92229,-0.0961 0.89904,-0.0284 1.48388,-0.027 2.3836,-0.0333 2.2007,0.0849 4.44965,-0.20725 6.62516,0.18433 4.39583,2.39098 10.69249,5.93965 -9.66853,-5.56526 -0.39168,-0.22132 0.76812,0.4703 1.13252,0.73413 0.72585,0.52553 1.78864,1.45665 2.45914,2.02848 5.96097,5.07014 13.02496,8.4864 19.77672,12.38527 5.00803,2.69499 2.45659,1.33607 -10.41567,-6.0291 -0.23408,-0.13393 0.84215,0.53868 0.89794,0.52814 0.23386,-0.0442 0.27142,-0.73697 0.27784,-0.7744 -1.67789,0.15598 -3.28456,-0.28122 -4.95119,-0.35512 -3.24147,-0.34204 -6.51444,-0.51821 -9.71159,-1.19166 -0.75559,-0.15916 -1.54206,-0.25322 -2.24404,-0.57488 -0.64281,-0.29455 -1.14664,-0.82768 -1.71996,-1.24152 17.30839,10.11995 11.27022,7.64675 8.46872,2.66904 -0.71545,-1.27122 -0.79429,-1.61862 -1.29746,-2.94066 0,0 -13.14422,-6.12814 -13.14422,-6.12814 v 0 c 3.23436,9.23164 6.33278,8.8878 17.08818,15.39812 0.64691,0.28839 1.26417,0.65558 1.94073,0.86517 0.70455,0.21826 1.44652,0.29103 2.1745,0.40967 3.38052,0.55096 6.79655,0.87994 10.17566,1.44386 1.88412,0.29803 3.89624,0.57088 5.7263,-0.12792 0.94497,-1.05173 1.56278,-1.79474 0.0278,-2.69824 -7.85581,-4.6241 -9.47886,-5.53169 -14.65157,-8.44227 22.27194,12.88574 9.62049,6.05651 5.0065,2.24643 -1.00579,-0.86941 -2.2292,-2.29097 -3.35358,-2.958 -3.49019,-2.07053 -10.14787,-7.36133 -15.83647,-8.47229 -2.21598,-0.0714 -4.43367,0.0199 -6.65045,0.007 -1.26179,0.0223 -3.41796,-0.15751 -4.58873,0.15321 -0.34656,0.092 -1.25576,0.22157 -0.97788,0.44817 3.86369,3.15061 8.11797,5.78935 12.17696,8.68402 0.88638,-0.13735 1.96128,0.10776 2.83397,0.17835 2.27054,0.18367 4.5478,0.31068 6.82648,0.19 2.60438,-0.14936 7.84248,-0.3734 9.44001,-2.93276 0.25871,-0.41448 0.25113,-0.94437 0.37669,-1.41656 -0.60917,-1.03339 -0.65282,-1.37494 -1.77669,-2.0494 -4.5704,-2.7428 -9.1769,-5.42756 -13.83659,-8.01575 -0.49154,-0.27301 -1.04569,-0.42591 -1.59305,-0.55451 -1.11835,-0.26276 -2.52302,-0.23692 -3.64536,-0.26812 -3.7351,-0.007 -7.46951,-0.0576 -11.20396,-0.11007 -6.82372,0.53959 3.674,4.33687 10.33074,9.14364 0.10152,0.0733 0.25078,-0.006 0.37566,0.003 0.26731,0.0198 0.53353,0.0526 0.79973,0.084 0.45203,0.0533 0.90324,0.11346 1.35485,0.17019 3.02564,0.42191 6.04604,0.89982 9.10179,1.04209 2.05645,0.23208 4.1233,0.59326 6.01548,1.46877 -25.81745,-15.1868 -11.42057,-7.44613 -8.62195,-4.67634 1.99418,1.97364 3.59752,4.29612 5.1643,6.6086 1.7748,2.7902 3.59053,5.56317 5.21055,8.44804 0.0781,0.13914 1.38395,2.76043 1.70492,2.96525 4.35841,2.78116 8.90362,5.25812 13.35543,7.88718 1.94127,0.59316 3.87432,0.7121 5.89935,0.59555 2.26036,-0.008 4.5215,0.005 6.78022,-0.0987 1.79868,-0.0993 4.50167,-0.11359 4.29481,-2.62265 -9.37048,-5.48386 -11.33737,-7.92666 -19.85174,-9.58316 -0.41775,-0.082 -3.56116,-0.69734 -3.94133,-0.77714 -0.60873,-0.12777 -2.28249,-0.82327 -1.8213,-0.40593 10.18533,9.21702 6.54775,8.78112 12.84009,8.32457 0.66005,-0.0547 1.63261,-0.11479 2.30149,-0.24289 0.27923,-0.0535 1.04192,-0.0374 0.82405,-0.22004 -22.7991,-19.11229 -6.34263,-8.97666 -12.84772,-8.73634 -2.24025,-0.0109 -4.49619,8.3e-4 -6.71389,0.35129 -2.18166,0.61024 -4.15532,1.68793 -4.52317,4.13892 0.15762,2.40469 0.96198,3.46382 2.31833,5.40547 0.32856,0.47035 0.53268,1.07623 1.01107,1.39296 4.43611,2.937 9.08792,5.53443 13.63187,8.30165 2.82258,1.09092 5.86605,1.21938 8.87143,1.20273 2.73647,-0.0369 5.48095,-0.0378 8.2059,-0.31887 2.51073,-0.39431 4.96617,-1.02532 7.4582,-1.51639 1.75276,-0.37847 5.05076,-0.52475 5.3432,-2.89954 0.0274,-0.22255 -0.14932,-0.42286 -0.22398,-0.63429 -0.31933,-0.18546 -9.29941,-6.72978 -14.28657,-8.02346 -1.59806,-0.41454 -3.25728,-0.57259 -4.82803,-1.09907 -2.11219,-0.72118 -4.18646,-1.58084 -6.21657,-2.50492 23.78314,13.83943 7.08294,4.52156 2.27968,0.4414 -0.51963,-0.37201 -5.80953,-4.16964 -6.20778,-4.40981 -8.10828,-4.88972 -15.91153,-9.71494 -24.74687,-12.9969 -2.44931,-1.11435 -4.87843,-2.24779 -7.25929,-3.50326 -3.20002,-1.68742 -16.56471,-9.50962 9.4831,5.55032 0.60196,0.34804 -1.19721,-0.70758 -1.79581,-1.06137 -3.66797,-2.03967 -7.12189,-4.40459 -10.30136,-7.15217 -2.4472,-2.05888 -4.13921,-4.80079 -6.51172,-6.94955 -4.54289,-4.85933 -1.49964,-1.81455 -14.70886,-9.06446 -0.96003,-0.52691 -2.79518,0.0813 -3.68738,0.53576 -2.52576,2.14499 -1.00837,3.92728 0.64724,6.10215 1.96703,3.22824 4.32942,6.19783 6.83651,9.02481 3.08976,3.47714 -0.12457,-0.1 3.0401,3.30083 0.40523,0.43546 2.21287,2.52906 2.81375,2.90283 4.51355,2.80754 9.15095,5.41101 13.74114,8.09141 0.46874,0.27372 0.95645,0.51358 1.43467,0.77037 3.78524,1.94247 7.70418,3.55064 11.62738,5.19039 5.33453,2.78381 5.69128,3.02049 -8.3476,-5.09008 -0.30621,-0.1769 0.57511,0.41227 0.85117,0.63328 0.70168,0.56175 1.18421,1.21947 1.54239,2.04898 1.45965,2.09908 3.03975,4.15821 5.22428,5.55553 4.6289,2.68805 9.23578,5.41438 13.88671,8.06413 1.33653,0.76146 3.49955,1.65259 4.85091,2.18517 4.54122,1.78972 9.17019,3.36238 13.84059,4.77746 5.58901,1.60611 13.341,4.57786 19.21037,3.0686 1.43219,-0.36828 2.60073,-1.18291 3.84003,-1.9281 4.27303,-3.07385 7.45569,-5.28363 13.01141,-5.02991 7.88206,0.0559 15.75983,0.36355 23.64104,0.48841 21.0141,0.65198 42.01733,1.7741 62.94089,3.88176 14.33453,1.38049 28.72027,2.86666 43.13761,1.91423 6.89306,-0.35386 13.78896,-0.68429 20.66502,-1.29936 4.26487,-0.38113 8.07035,-0.45377 11.24521,-3.6354 1.09143,-1.24125 1.73956,-1.84574 2.54276,-3.36621 2.5726,-4.86996 3.31089,-10.55691 4.86265,-15.76345 2.18179,-11.5771 4.02214,-22.68692 0.0234,-34.11377 -1.47452,-2.90244 -1.42277,-3.36589 -3.64587,-5.65649 -2.86246,-2.94938 -6.7025,-4.97949 -8.78002,-8.67542 -0.46047,-0.76911 -0.95302,-1.51988 -1.38139,-2.30731 -0.79221,-1.45623 -1.36734,-3.02448 -2.17095,-4.47444 -1.60948,-2.90399 -3.87659,-5.31399 -6.27865,-7.57801 -1.2546,-1.04116 -2.47874,-2.12018 -3.76381,-3.12349 -7.09876,-5.54233 -14.95265,-10.51264 -20.33954,-17.91607 -1.21212,-1.66586 -2.06312,-3.56662 -3.09468,-5.34993 -0.53649,-1.75043 -1.19997,-3.46689 -1.60948,-5.25131 -0.35177,-1.53287 -1.49937,-10.25154 -1.66896,-11.5358 -1.05151,-7.96301 -2.00625,-15.93819 -2.81913,-23.92939 -0.36018,-3.77787 -0.69431,-8.91585 -1.54459,-12.78404 -0.67236,-3.05877 -2.48004,-5.95846 -2.78715,-9.09881 -0.0748,-0.7647 0.0982,-1.53354 0.14738,-2.30031 0.59143,-0.81263 1.03983,-1.75181 1.77431,-2.43789 2.42936,-2.26931 6.54841,-4.26023 9.26403,-5.81761 6.71048,-3.84839 13.52845,-7.64277 19.03433,-13.18673 0.64319,-1.83279 2.00834,-3.55759 1.92957,-5.49837 -0.16822,-4.14413 -5.51204,-9.76353 -7.56732,-12.34056 -6.93093,-8.69042 -14.04003,-17.24477 -20.58698,-26.23508 -3.04701,-4.39443 -6.15208,-8.33539 -8.42144,-13.15648 -2.60164,-5.527 -1.65392,-11.85922 -2.84923,-17.69997 -1.29407,-8.32112 -2.63178,-16.73027 -5.32294,-24.744865 -1.52567,-4.543632 -4.98843,-13.532423 -8.9655,-16.826862 -5.24868,-4.347782 -11.51612,-7.292905 -17.27418,-10.939357 -3.18181,-0.539985 -6.31814,-1.60958 -9.54542,-1.619954 -8.89563,-0.02859 -19.53734,3.373481 -27.73338,5.772165 -6.22186,1.820915 -12.39585,3.801837 -18.58224,5.739854 -23.60524,7.394843 -17.10284,5.33403 -40.10174,13.245569 -4.80052,2.089538 -9.67482,4.017169 -14.40158,6.268613 -7.38199,3.516185 -16.00542,9.729489 -24.31344,10.953627 -2.70842,0.39907 -9.55092,-0.53855 -11.87128,-0.786989 -10.66408,-1.19562 -21.34261,-2.235659 -32.0746,-2.607541 -4.59333,-0.159166 -9.19753,-0.430756 -13.78702,-0.184541 -9.49347,0.509302 -14.61495,2.222507 -23.80569,4.472411 -15.42859,4.38482 -30.76842,9.05364 -46.20074,13.42681 -5.61372,1.59081 -19.831774,5.36359 -26.280877,7.68956 -1.520031,0.54823 -2.912426,1.4007 -4.368639,2.10105 -0.447192,0.48784 -0.950608,0.92957 -1.341574,1.46353 -0.92056,1.25725 -1.509638,2.73608 -2.429675,3.99372 -2.674903,3.65644 -5.965052,6.82049 -8.719377,10.41309 -1.689095,3.00469 -2.684635,3.93435 -2.943626,7.35949 -0.0888,1.17431 0.171926,2.34913 0.276025,3.52218 0.50939,5.74013 1.131935,11.47361 1.9954,17.17218 4.124657,28.17887 9.523677,56.14877 14.15459,84.24608 5.718902,35.18799 0.105654,-0.4737 4.473936,30.29352 0.464332,3.27044 1.543725,10.49319 2.733699,14.03599 0.525306,1.56395 0.830257,3.40581 2.067882,4.49675 4.397235,3.87609 9.621339,6.69841 14.432006,10.04762 1.54227,0.80122 3.015,1.75356 4.62679,2.40366 2.25674,0.91025 13.82224,4.22856 15.19439,4.61573 13.53778,3.81983 27.17682,7.2681 40.81273,10.71587 5.22718,1.28507 22.33932,5.59619 28.48117,6.75072 2.20471,0.41444 4.45636,0.52067 6.68557,0.77196 1.12421,0.12672 4.19048,1.14582 3.37462,0.36206 -10.8309,-10.40476 -10.3196,-11.57778 -10.93741,-6.22488 0.20733,0.62672 0.30236,1.30259 0.62199,1.88017 2.35393,4.25358 7.36038,7.58979 11.15195,10.2951 9.60791,6.85532 12.94438,8.34309 25.28497,15.69524 3.09036,1.699 6.13801,3.47813 9.27109,5.097 6.09147,3.14749 12.90176,6.30055 19.32198,8.74586 5.46898,2.08301 8.8317,3.13229 14.377,4.08426 1.12856,0.19374 2.28023,0.21273 3.42035,0.31909 z" />
    <path
       style="fill:#ececec"
       id="path59"
       d="m 351.06847,354.7289 c -0.22481,0.0129 -0.4494,0.0302 -0.67441,0.0387 -0.52396,0.02 -1.21881,0.083 -1.72351,-0.14229 -0.25068,-0.11191 -0.89084,-0.63794 -0.65089,-0.50457 12.00246,6.67091 15.30749,10.16294 11.41858,6.19413 -1.44354,-4.15432 -1.33751,-8.73778 -0.86211,-13.0598 0.79831,-4.74336 2.60869,-9.2372 5.38894,-13.15276 1.7766,-2.34887 3.80594,-4.56798 6.15759,-6.35881 0.4203,-0.32007 0.82737,-0.6752 1.30733,-0.89592 0.41892,-0.19265 0.89656,-0.21583 1.34484,-0.32375 0.53944,0.12639 1.10793,0.16359 1.61832,0.37916 0.67223,0.28394 2.53093,1.45381 1.89099,1.10311 -3.20876,-1.75849 -6.27081,-3.8042 -9.598,-5.32676 -1.18273,-0.54123 2.10376,1.53254 3.10936,2.35748 1.44328,1.18399 5.19939,4.61977 6.58695,5.87757 3.24625,3.40512 7.36332,6.04043 10.30644,9.74606 1.45923,1.83729 1.58511,2.43821 2.5339,4.51891 0.90553,3.00111 1.9731,6.80567 0.40103,9.80937 -0.17453,0.33347 -0.43827,0.61202 -0.65741,0.91803 -0.5444,0.44955 -0.84507,0.79578 -1.53669,1.0017 -0.37992,0.11311 -0.78321,0.1239 -1.17247,0.19879 -3.9805,0.76572 -7.88617,1.14736 -11.93269,1.48756 0,0 10.48664,7.52716 10.48664,7.52716 v 0 c 1.9736,-0.0654 3.94767,-0.11773 5.9208,-0.19609 2.22799,-0.0885 6.82105,0.0265 9.07453,-1.03406 0.7314,-0.34422 1.26012,-1.04324 1.78413,-1.61441 0.24701,-0.41774 0.54247,-0.81041 0.74104,-1.25324 1.55131,-3.4595 0.53667,-7.46317 -0.28826,-10.95555 -0.74986,-1.84382 -1.24014,-3.36157 -2.437,-4.99765 -2.87375,-3.92833 -7.55993,-6.49007 -10.80089,-10.08118 -2.12974,-1.93475 -4.19543,-3.93948 -6.33413,-5.86432 -0.90249,-0.81224 -1.74816,-1.71124 -2.77415,-2.36053 -4.76066,-3.01274 -9.63003,-5.85511 -14.54881,-8.60213 -0.71994,-0.40207 -1.51969,-0.68388 -2.33205,-0.82545 -0.68131,-0.11874 -1.38263,0.0384 -2.07394,0.0576 -0.52119,0.23685 -1.07752,0.40804 -1.56355,0.71054 -0.46774,0.29111 -0.86192,0.68736 -1.27259,1.05461 -2.27319,2.03287 -4.25514,4.37431 -6.21444,6.70134 -0.45265,0.63663 -0.95277,1.24205 -1.35796,1.9099 -2.1968,3.62095 -3.22824,7.82694 -4.2258,11.89035 -0.17125,0.87859 -0.40956,1.74674 -0.51376,2.63578 -0.42553,3.63072 0.43998,7.33765 0.42382,10.96931 1.83909,6.94726 10.70369,9.20199 17.15987,9.26022 z" />
    <path
       style="fill:#ececec"
       id="path60"
       d="m 154.62212,279.65703 c 0.30959,-5.02996 1.58893,-9.93678 2.63452,-14.84709 2.40632,-11.30059 -0.15461,0.30883 2.4274,-11.26202 1.8863,-8.21549 4.40855,-16.23477 7.4527,-24.08653 0.76432,-1.6845 1.69868,-5.82007 3.13415,-7.04576 1.3208,-1.12777 3.56589,-1.06103 5.0267,-1.27408 5.34634,-0.22233 10.73932,-0.10942 16.04034,0.69058 1.65329,0.2495 3.32185,0.48717 4.91898,0.98195 1.50275,0.46555 5.63461,2.75871 4.32786,1.88269 -2.33787,-1.56729 -4.96632,-2.65026 -7.44948,-3.97538 1.22583,1.10468 2.56103,2.09893 3.6775,3.31403 6.02469,6.55699 8.5422,15.29675 10.68152,23.70385 1.23722,6.1041 2.09251,12.33133 2.18224,18.56932 0.0525,3.65401 -0.10685,4.50047 -0.41547,8.03535 -0.58955,3.46093 -1.24196,7.08582 -3.09718,10.14027 -0.65371,1.07628 -1.28327,1.59336 -2.17061,2.47906 -4.80325,4.08488 -10.7082,6.65017 -16.3334,9.3991 -4.15561,1.84178 -7.83456,3.96722 -12.33611,4.79473 -4.12268,-1.08058 -11.66813,-3.20029 8.77767,5.24172 1.05,0.43354 -1.74535,-1.47939 -2.44376,-2.37531 -1.0469,-1.34296 -1.95978,-2.79565 -2.75926,-4.2991 -2.3997,-4.51269 -3.07808,-7.19564 -4.71295,-12.04354 -2.26283,-7.51708 -3.62888,-15.25018 -4.32203,-23.05781 -0.0363,-0.72103 -0.0726,-1.44206 -0.10895,-2.16309 0,0 -12.7479,-6.39638 -12.7479,-6.39638 v 0 c 0.0548,0.75016 0.10958,1.50032 0.16438,2.25048 0.90325,8.19321 3.46993,16.09537 5.64414,24.01364 1.30257,4.22353 2.33168,7.93224 4.02259,12.00999 0.35451,0.85491 2.62456,6.02932 3.99313,6.92862 12.68707,8.33676 9.14726,7.92632 16.35468,8.13431 1.55347,-0.37347 1.92946,-0.39471 3.39645,-1.01864 2.95933,-1.25863 5.57654,-3.22458 8.54573,-4.46906 3.22766,-1.6254 6.49454,-3.17609 9.70105,-4.84301 1.34442,-0.6989 4.3385,-2.28399 5.66164,-3.17117 0.63109,-0.42316 1.19261,-0.94182 1.78892,-1.41273 0.46161,-0.46865 0.97534,-0.89112 1.38482,-1.40594 2.58527,-3.25037 3.0357,-8.55677 3.68775,-12.46671 0.52282,-9.34353 0.0512,-18.05781 -2.05704,-27.22229 -2.10547,-8.51515 -4.55645,-17.4261 -10.27266,-24.33384 -1.05389,-1.27357 -2.33258,-2.34302 -3.49887,-3.51452 -5.13066,-3.02195 -10.15081,-6.2399 -15.39198,-9.06585 -2.85912,-1.54159 -6.10993,-2.01864 -9.26894,-2.41108 -5.5092,-0.68441 -11.07543,-0.69497 -16.61594,-0.73875 -1.51805,0.17581 -3.08025,0.12369 -4.55415,0.52744 -2.19398,0.60099 -2.79907,2.61641 -3.46872,4.45775 -0.94207,2.59045 -0.59518,1.57436 -1.40569,4.34285 -2.5392,8.16436 -4.3618,16.51231 -6.44852,24.79934 -2.05075,8.53248 -4.2299,17.03037 -6.76007,25.43538 z" />
    <path
       style="fill:#ececec"
       id="path61"
       d="m 304.36589,154.6773 c 0.63127,-0.49662 1.11653,-3.05186 1.51246,-3.40421 0.13449,-0.11967 0.15538,0.61186 -0.01,0.54 -4.38537,-1.90941 -8.63264,-4.12149 -12.94897,-6.18223 -0.51198,1.51446 -0.89236,3.07998 -1.53594,4.54337 -2.34198,5.32525 -5.04574,9.61272 -8.30119,14.46866 -4.2607,6.3554 -9.00023,12.3964 -13.63547,18.47873 -0.94851,1.8405 -2.05518,3.60775 -2.84555,5.5215 -2.68546,6.5024 -3.61843,13.72248 -3.05712,20.71584 0.55487,6.9131 1.6749,9.45556 3.62058,16.14191 3.61972,9.16913 2.26151,6.00803 6.03319,14.54076 1.39303,3.15148 3.56249,7.53249 4.41411,10.96649 1.01069,4.07542 0.78314,6.35903 0.80136,10.47282 -0.16025,1.77987 -0.36784,5.76357 -1.0268,7.68351 -0.11639,0.33912 -1.09916,0.69136 -0.74965,0.77137 4.51197,1.03299 9.49422,4.10417 13.71137,2.19614 3.20432,-1.44979 2.10232,-6.72347 3.46302,-9.96662 1.72148,-4.10305 3.84606,-8.02507 5.76908,-12.0376 8.74262,-16.39108 19.2522,-31.72848 29.4793,-47.20636 0.6389,-1.08561 1.2778,-2.17122 1.91669,-3.25682 0,0 -11.86838,-6.77671 -11.86838,-6.77671 v 0 c -0.50643,1.13735 -1.01286,2.27471 -1.51929,3.41207 -8.26408,16.62033 -17.2466,32.87796 -26.64652,48.88101 -2.25199,3.84525 -4.48136,7.70383 -6.75595,11.53574 -1.79345,3.02135 -6.32157,5.6204 -5.44792,9.0236 9.18205,35.76766 10.93576,9.58409 11.13212,6.32938 0.0935,-1.54927 0.14676,-3.1007 0.22013,-4.65105 -0.0426,-3.55248 0.10814,-7.46365 -0.76419,-10.95213 -0.92117,-3.68376 -3.3941,-8.03052 -5.01346,-11.35079 -4.02988,-8.26271 -2.80544,-5.69427 -6.42852,-14.52694 -1.86752,-6.52788 -2.93005,-8.92212 -3.41632,-15.65856 -0.64676,-8.95983 1.49545,-17.59948 5.89498,-25.38161 8.03073,-12.64467 16.87156,-24.71178 25.36771,-37.0409 -0.42311,-0.31266 -10.16583,-13.85041 -12.78129,-8.39602 -0.47047,0.98113 -0.58781,2.14746 -1.42394,2.94573 z" />
    <path
       style="fill:#ececec"
       id="path62"
       d="m 350.84185,258.24678 c 0.32718,1.80501 -0.96814,2.63967 -2.37217,3.44447 -0.60481,0.24978 -1.60818,0.64772 -2.10272,0.95149 -0.73414,0.45096 -1.41795,0.97928 -2.11819,1.48126 -1.59122,1.14071 -5.37664,3.9151 -6.66699,5.00734 -1.66278,1.40751 -3.22543,2.9292 -4.83814,4.39379 -10.29436,9.32115 -20.8558,18.36482 -31.71285,27.02404 -5.77319,4.20836 -3.0075,2.22187 -8.2896,5.96986 0,0 11.30408,7.12722 11.30408,7.12722 v 0 c 4.83017,-4.06508 2.26882,-1.93368 7.69241,-6.38411 6.90471,-5.7307 13.75729,-11.53109 20.48398,-17.47065 1.81008,-1.59826 3.56518,-3.25888 5.39735,-4.83177 1.89291,-1.62504 3.85037,-3.17336 5.77556,-4.76004 4.11676,-3.02771 8.17192,-5.98995 12.69705,-8.38655 3.54336,-1.87664 1.08933,-0.46663 3.89934,-1.66148 0.30675,-0.13043 0.58649,-0.31698 0.87973,-0.47547 1.65079,-1.12506 3.26619,-2.46484 3.30799,-4.63394 z" />
    <path
       style="fill:#ececec"
       id="path63"
       d="m 385.9148,189.41107 c -0.66362,-0.79708 -1.40198,-1.70201 -2.10231,-2.44117 -3.88886,-4.10449 -3.51591,-3.4351 -7.94578,-8.08991 -3.53869,-3.71838 -9.30389,-10.13661 -12.59382,-13.76831 -9.17368,-9.99667 -18.17545,-20.14608 -27.15301,-30.3183 0,0 -10.92627,-4.58353 -10.92627,-4.58353 v 0 c 9.4276,9.98854 18.72353,20.10543 27.68419,30.51734 3.76007,4.42041 7.46663,8.88686 11.27838,13.26278 2.71977,3.12231 5.65992,6.11879 8.04677,9.51215 z" />
    <path
       style="fill:#ececec"
       id="path64"
       d="m 150.49814,137.03893 c 4.05825,-0.38134 8.04979,0.76989 11.86015,2.03469 5.00067,1.56703 9.70499,3.845 14.25216,6.42284 1.10844,0.62839 4.45123,2.47557 3.30081,1.92779 -2.8146,-1.3402 -5.53373,-2.87233 -8.3006,-4.30849 7.59567,6.18924 13.79608,14.0202 18.62087,22.53016 0.99915,1.76229 1.8525,3.60333 2.77875,5.40499 5.2221,12.01068 8.32264,24.81638 11.28663,37.53503 0.93604,4.07897 1.90798,8.14761 2.79221,12.2381 0,0 12.37003,5.93091 12.37003,5.93091 v 0 c -1.16122,-4.21391 -2.29371,-8.43635 -3.55895,-12.62076 -0.34531,-1.22663 -3.23743,-11.4937 -3.45656,-12.30102 -2.33256,-8.59366 -4.02241,-17.4276 -7.82239,-25.54506 -0.9501,-1.84624 -1.83752,-3.72611 -2.8503,-5.53873 -4.67085,-8.35966 -10.41165,-16.26333 -17.59792,-22.63135 -10.53145,-6.57398 -20.79474,-13.72709 -32.73603,-17.51323 -4.244,-1.33811 -8.53674,-2.39095 -13.01817,-2.342 z" />
    <path
       style="fill:#ececec"
       id="path65"
       d="m 272.20227,339.41581 c -0.4922,0.0272 -0.98371,0.0896 -1.4766,0.0817 -1.69728,-0.0272 -3.47248,-0.18839 -5.07398,-0.80622 -1.15538,-0.44573 -4.40729,-2.26117 -3.30669,-1.6935 9.27486,4.78383 10.03775,5.92398 4.25294,0.949 -4.44066,-4.21083 -8.35282,-8.93153 -11.53287,-14.15746 -2.14652,-3.86577 -2.11077,-8.42362 -2.38582,-12.7216 -0.34701,-8.43474 -0.0208,-16.87607 0.1176,-25.31164 0.006,-7.48437 0.68719,-14.94457 1.31529,-22.39585 0.50855,-5.46511 1.15121,-10.92014 1.35642,-16.40759 -0.0232,-5.81074 -0.2039,-11.61801 -0.12742,-17.42896 -0.12468,-2.60003 0.37362,-5.28686 0.0644,-7.8816 -0.37207,-3.12232 -1.71771,-8.30255 -2.35421,-11.1094 -0.55587,-2.45128 -1.0863,-4.90826 -1.62945,-7.3624 -2.19059,-10.35646 -4.25118,-20.76324 -5.2457,-31.31131 -0.16228,-3.2514 -0.57524,-6.78848 0.49986,-9.95196 0.68287,-2.00936 1.37024,-2.71958 2.59596,-4.50431 5.44557,-6.26854 12.80083,-10.47308 20.0775,-14.27754 5.3775,-3.00707 11.15655,-4.92475 17.07749,-6.50859 5.47405,-1.41852 10.97623,-2.71599 16.46264,-4.08491 0,0 -11.75883,-8.07636 -11.75883,-8.07636 v 0 c -5.33707,1.56887 -10.74053,2.8887 -16.1162,4.31699 -1.51593,0.40541 -4.84285,1.27406 -6.34183,1.75881 -3.80692,1.23109 -7.31241,3.11926 -10.74124,5.15539 -4.99653,2.97253 -9.99415,5.94566 -14.68044,9.39658 -1.19151,0.87742 -2.41143,1.72321 -3.5285,2.69362 -0.88764,0.77112 -1.647,1.67856 -2.4705,2.51784 -1.39942,1.83272 -2.3101,2.71926 -3.11238,4.86777 -1.24617,3.3373 -0.62812,7.20113 -0.26444,10.61719 0.34114,2.27187 0.84751,5.76489 1.2588,7.95565 1.51694,8.08008 3.76486,16.00504 5.26505,24.08908 0.75519,4.27922 1.64231,8.88361 2.14596,13.22296 0.46973,4.04713 0.2122,8.09684 0.38937,12.15619 0.0832,5.73595 -0.0467,11.4718 -0.23033,17.20458 -0.075,5.58161 -0.12706,11.16641 -0.54234,16.73625 -0.62665,7.44758 -1.87515,14.86471 -1.62686,22.35861 0.077,8.47177 0.30479,16.94663 0.0416,25.41733 -0.18281,4.42562 -0.88425,9.0052 1.3283,13.06224 3.48457,5.48339 7.75944,10.39454 12.38141,14.95033 7.41764,6.79478 3.83789,3.91878 18.69951,12.54017 3.44483,1.99839 7.26867,2.54806 11.17465,2.63109 z" />
  </g>
</svg>
